<svg xmlns="http://www.w3.org/2000/svg" viewBox="0 0 64 64" width="64" height="64">
  <defs>
    <linearGradient id="bg" x1="0" y1="0" x2="1" y2="1">
      <stop offset="0%" stop-color="#10b981"/>
      <stop offset="100%" stop-color="#0d9488"/>
    </linearGradient>
    <linearGradient id="coin" x1="0" y1="0" x2="0" y2="1">
      <stop offset="0%" stop-color="#fde68a"/>
      <stop offset="100%" stop-color="#f59e0b"/>
    </linearGradient>
  </defs>
  <rect width="64" height="64" rx="14" fill="url(#bg)"/>
  <path d="M16 24c0-2.2 1.8-4 4-4h20c2.2 0 4 1.8 4 4v18c0 2.2-1.8 4-4 4H20c-2.2 0-4-1.8-4-4V24z" fill="#fff" opacity="0.95"/>
  <path d="M16 24c0-2.2 1.8-4 4-4h20c2.2 0 4 1.8 4 4v3H16v-3z" fill="#059669"/>
  <circle cx="44" cy="38" r="9" fill="url(#coin)" stroke="#fff" stroke-width="2"/>
  <text x="44" y="43" text-anchor="middle" font-size="10" font-weight="bold" fill="#92400e" font-family="Arial, sans-serif">Rp</text>
  <circle cx="20" cy="22" r="1.5" fill="#059669"/>
  <circle cx="24" cy="22" r="1.5" fill="#059669"/>
</svg>
